<svg
                xmlns="http://www.w3.org/2000/svg"
                className="w-7 h-7"
                viewBox="0 0 20 24"
                version="1.1"
              >
                <g id="surface1">
                  <path d="M 7.359375 2.078125 C 7.136719 2.308594 6.960938 2.554688 6.960938 2.613281 C 6.960938 2.859375 5.695312 3.363281 5.09375 3.363281 C 4.351562 3.363281 4.160156 3.546875 4.019531 4.433594 C 3.910156 5.121094 3.558594 5.535156 2.4375 6.363281 C 1.992188 6.683594 1.992188 6.714844 2.183594 7.402344 C 2.46875 8.425781 2.421875 8.871094 1.976562 9.558594 C 1.472656 10.351562 1.488281 10.550781 2.074219 11.101562 C 2.769531 11.714844 3.039062 12.417969 2.925781 13.210938 C 2.816406 13.929688 3.054688 14.253906 3.859375 14.4375 C 4.605469 14.605469 5.160156 15.078125 5.457031 15.78125 C 5.601562 16.148438 5.808594 16.484375 5.902344 16.546875 C 5.996094 16.609375 6.519531 16.609375 7.042969 16.5625 C 8.039062 16.46875 8.71875 16.667969 9.160156 17.1875 C 9.429688 17.511719 10.191406 17.511719 10.457031 17.1875 C 10.902344 16.667969 11.582031 16.46875 12.59375 16.5625 C 13.640625 16.652344 13.925781 16.53125 14.144531 15.796875 C 14.320312 15.246094 15.160156 14.542969 15.742188 14.4375 C 16.488281 14.296875 16.835938 13.902344 16.707031 13.289062 C 16.566406 12.570312 16.851562 11.746094 17.484375 11.164062 C 18.132812 10.550781 18.148438 10.367188 17.640625 9.558594 C 17.199219 8.871094 17.152344 8.425781 17.4375 7.402344 C 17.625 6.714844 17.625 6.683594 17.183594 6.363281 C 16.058594 5.535156 15.710938 5.121094 15.601562 4.433594 C 15.457031 3.546875 15.269531 3.363281 14.523438 3.363281 C 13.71875 3.363281 12.816406 2.90625 12.453125 2.324219 C 12.074219 1.699219 11.726562 1.621094 10.902344 1.988281 C 10.03125 2.371094 9.589844 2.371094 8.71875 1.988281 C 7.847656 1.605469 7.816406 1.605469 7.359375 2.078125 Z M 12.375 4.082031 C 15.855469 5.660156 17.042969 9.816406 14.890625 12.847656 C 12.992188 15.523438 9.273438 16.226562 6.410156 14.453125 C 5.441406 13.855469 4.746094 13.042969 4.144531 11.820312 C 3.78125 11.054688 3.71875 10.75 3.71875 9.480469 C 3.71875 8.167969 3.765625 7.9375 4.226562 7.003906 C 5.332031 4.726562 7.46875 3.472656 10.046875 3.5625 C 11.089844 3.609375 11.535156 3.699219 12.375 4.082031 Z M 12.375 4.082031 " />
                  <path d="M 8.417969 4.375 C 5.539062 5.121094 3.78125 7.96875 4.492188 10.71875 C 5.015625 12.648438 6.503906 14.113281 8.464844 14.605469 C 9.683594 14.910156 10.207031 14.894531 11.359375 14.558594 C 13.273438 13.976562 14.605469 12.632812 15.109375 10.78125 C 15.410156 9.648438 15.410156 9.3125 15.109375 8.179688 C 14.621094 6.332031 13.070312 4.847656 11.140625 4.359375 C 10.03125 4.082031 9.507812 4.082031 8.417969 4.375 Z M 12.785156 7.84375 L 13.292969 8.351562 L 11.203125 10.367188 L 9.097656 12.386719 L 7.800781 11.132812 C 7.074219 10.429688 6.488281 9.800781 6.488281 9.726562 C 6.488281 9.527344 7.292969 8.714844 7.5 8.714844 C 7.59375 8.714844 7.992188 9.023438 8.386719 9.40625 L 9.113281 10.09375 L 10.523438 8.714844 C 11.296875 7.953125 12.007812 7.339844 12.105469 7.339844 C 12.199219 7.339844 12.5 7.570312 12.785156 7.84375 Z M 12.785156 7.84375 " />
                  <path d="M 3.957031 18.167969 C 3.496094 19.40625 3.085938 20.492188 3.054688 20.582031 C 3.007812 20.707031 3.402344 20.675781 4.226562 20.476562 C 4.90625 20.324219 5.585938 20.203125 5.726562 20.1875 C 5.886719 20.1875 6.359375 20.628906 6.835938 21.257812 C 7.292969 21.835938 7.707031 22.328125 7.769531 22.328125 C 7.941406 22.328125 9.492188 17.96875 9.351562 17.921875 C 9.257812 17.890625 8.925781 17.664062 8.589844 17.417969 C 8.023438 16.976562 7.957031 16.960938 6.914062 17.050781 C 5.917969 17.160156 5.808594 17.128906 5.441406 16.804688 C 5.238281 16.621094 5.0625 16.378906 5.0625 16.269531 C 5.0625 16.164062 5 16.042969 4.921875 15.996094 C 4.859375 15.949219 4.414062 16.929688 3.957031 18.167969 Z M 3.957031 18.167969 " />
                  <path d="M 14.574219 16.226562 C 14.289062 16.960938 13.925781 17.128906 12.640625 17.082031 C 11.566406 17.050781 11.410156 17.082031 10.949219 17.464844 C 10.679688 17.679688 10.378906 17.890625 10.285156 17.921875 C 10.125 17.96875 11.675781 22.328125 11.851562 22.328125 C 11.914062 22.328125 12.324219 21.835938 12.785156 21.257812 C 13.257812 20.628906 13.734375 20.1875 13.890625 20.1875 C 14.035156 20.203125 14.714844 20.324219 15.394531 20.476562 C 16.058594 20.628906 16.613281 20.738281 16.613281 20.707031 C 16.613281 20.597656 14.859375 15.996094 14.792969 15.933594 C 14.761719 15.890625 14.652344 16.027344 14.574219 16.226562 Z M 14.574219 16.226562 " />
                </g>
              </svg>
              