<?xml version="1.0" standalone="no"?>
<!DOCTYPE svg PUBLIC "-//W3C//DTD SVG 20010904//EN"
 "http://www.w3.org/TR/2001/REC-SVG-20010904/DTD/svg10.dtd">
<svg version="1.0" xmlns="http://www.w3.org/2000/svg"
 width="191.000000pt" height="179.000000pt" viewBox="0 0 191.000000 179.000000"
 preserveAspectRatio="xMidYMid meet">

<g transform="translate(0.000000,179.000000) scale(0.100000,-0.100000)"
fill="#000000" stroke="none">
<path d="M605 1660 c-124 -6 -220 -25 -243 -47 -7 -7 -18 -13 -24 -13 -12 0
-74 -51 -70 -57 2 -2 -10 -16 -26 -31 -16 -15 -37 -46 -47 -69 -10 -23 -22
-40 -25 -38 -4 3 -11 -35 -14 -83 -10 -122 -5 -972 6 -972 4 0 8 -6 8 -12 0
-29 58 -125 100 -166 25 -24 72 -58 105 -75 l60 -32 460 -3 c400 -2 469 -1
528 14 37 9 67 19 67 23 0 4 12 14 28 24 76 47 141 133 167 224 14 46 15 122
13 536 -2 327 -7 488 -14 502 -6 11 -20 38 -30 60 -24 51 -107 136 -159 163
-49 26 -122 46 -154 43 -15 -2 -21 1 -17 8 4 7 -1 11 -14 11 -12 0 -18 -4 -15
-10 3 -5 1 -10 -4 -10 -6 0 -11 3 -11 8 0 9 -509 11 -675 2z m338 -7 c-13 -2
-33 -2 -45 0 -13 2 -3 4 22 4 25 0 35 -2 23 -4z m83 -208 c31 -20 50 -71 34
-90 -17 -21 -63 -19 -93 5 -68 53 -115 -2 -161 -188 -28 -111 -57 -176 -122
-270 -24 -35 -44 -65 -44 -67 0 -2 32 -23 70 -45 52 -30 70 -46 66 -58 -14
-53 -18 -62 -25 -62 -5 0 -45 20 -90 45 -45 25 -86 45 -92 45 -5 0 -27 -9 -49
-20 -22 -11 -57 -20 -79 -20 -35 0 -43 4 -57 31 -24 47 -12 77 42 101 33 14
62 19 101 16 54 -3 55 -2 73 32 11 19 47 122 82 229 53 163 69 200 101 237 81
92 174 122 243 79z m175 -284 c32 -33 37 -62 13 -85 -22 -22 -42 -20 -80 9
-18 14 -41 25 -52 25 -38 0 -83 -79 -107 -191 -24 -111 -52 -175 -116 -272
l-59 -88 33 -19 c62 -38 292 -148 355 -169 122 -41 199 -20 223 60 14 45 30
62 52 53 66 -25 -28 -198 -123 -224 -53 -15 -74 -13 -170 20 -90 29 -202 83
-353 166 l-82 45 -46 -21 c-84 -40 -139 -26 -156 38 -12 50 82 101 166 89 29
-4 44 -1 55 12 8 9 42 102 76 206 35 105 73 211 86 236 39 78 131 138 212 139
35 0 49 -6 73 -29z m108 -410 c21 -13 8 -84 -23 -132 -66 -99 -155 -117 -306
-60 -120 44 -118 42 -95 85 11 20 23 36 28 36 5 0 49 -13 99 -30 49 -16 107
-30 128 -30 48 0 94 36 111 88 18 57 26 63 58 43z"/>
<path d="M450 790 c0 -5 7 -7 15 -4 8 4 15 8 15 10 0 2 -7 4 -15 4 -8 0 -15
-4 -15 -10z"/>
<path d="M618 518 c9 -9 15 -9 24 0 9 9 7 12 -12 12 -19 0 -21 -3 -12 -12z"/>
</g>
</svg>
